{
  "accessors": [
    {
      "bufferView": 2,
      "componentType": 5126,
      "count": 1605,
      "max": [
        0.6450049877166748,
        0.15854500234127045,
        2.0223679542541504
      ],
      "min": [
        -0.6608750224113464,
        -0.20057600736618042,
        0.01790899969637394
      ],
      "type": "VEC3"
    },
    {
      "bufferView": 2,
      "byteOffset": 19260,
      "componentType": 5126,
      "count": 1605,
      "max": [
        0.999974250793457,
        0.9997974038124084,
        0.9998688697814941
      ],
      "min": [
        -0.9996488690376282,
        -0.9999924898147583,
        -0.9999706745147705
      ],
      "type": "VEC3"
    },
    {
      "bufferView": 1,
      "componentType": 5126,
      "count": 1605,
      "max": [
        0.9884179830551147,
        0.9907529950141907
      ],
      "min": [
        0.0064849997870624065,
        0.00814799964427948
      ],
      "type": "VEC2"
    },
    {
      "bufferView": 0,
      "componentType": 5125,
      "count": 7647,
      "type": "SCALAR"
    }
  ],
  "asset": {
    "extras": {
      "author": "patrick.ambrose28402 (https://sketchfab.com/patrick.ambrose28402)",
      "license": "CC-BY-4.0 (http://creativecommons.org/licenses/by/4.0/)",
      "source": "https://sketchfab.com/3d-models/waiter-d972a190c03547019e09eab7ed3355e4",
      "title": "Waiter"
    },
    "generator": "Sketchfab-16.72.0",
    "version": "2.0"
  },
  "bufferViews": [
    {
      "buffer": 0,
      "byteLength": 30588,
      "name": "floatBufferViews",
      "target": 34963
    },
    {
      "buffer": 0,
      "byteLength": 12840,
      "byteOffset": 30588,
      "byteStride": 8,
      "name": "floatBufferViews",
      "target": 34962
    },
    {
      "buffer": 0,
      "byteLength": 38520,
      "byteOffset": 43428,
      "byteStride": 12,
      "name": "floatBufferViews",
      "target": 34962
    }
  ],
  "buffers": [
    {
      "byteLength": 81948,
      "uri": "scene.bin"
    }
  ],
  "images": [
    {
      "uri": "textures/mat0_baseColor.png"
    }
  ],
  "materials": [
    {
      "doubleSided": true,
      "name": "mat0",
      "pbrMetallicRoughness": {
        "baseColorTexture": {
          "index": 0
        },
        "metallicFactor": 0.0
      }
    }
  ],
  "meshes": [
    {
      "name": "Object_0",
      "primitives": [
        {
          "attributes": {
            "NORMAL": 1,
            "POSITION": 0,
            "TEXCOORD_0": 2
          },
          "indices": 3,
          "material": 0,
          "mode": 4
        }
      ]
    }
  ],
  "nodes": [
    {
      "children": [
        1
      ],
      "matrix": [
        1.0,
        0.0,
        0.0,
        0.0,
        0.0,
        2.220446049250313e-16,
        -1.0,
        0.0,
        0.0,
        1.0,
        2.220446049250313e-16,
        0.0,
        0.0,
        0.0,
        0.0,
        1.0
      ],
      "name": "Sketchfab_model"
    },
    {
      "children": [
        2
      ],
      "name": "Waiter.obj.cleaner.materialmerger.gles"
    },
    {
      "mesh": 0,
      "name": "Object_2"
    }
  ],
  "samplers": [
    {
      "magFilter": 9729,
      "minFilter": 9987,
      "wrapS": 10497,
      "wrapT": 10497
    }
  ],
  "scene": 0,
  "scenes": [
    {
      "name": "Sketchfab_Scene",
      "nodes": [
        0
      ]
    }
  ],
  "textures": [
    {
      "sampler": 0,
      "source": 0
    }
  ]
}
